<svg width="294" height="90" viewBox="0 0 294 90" fill="none" xmlns="http://www.w3.org/2000/svg">
<g clip-path="url(#clip0_287_786)">
<path d="M134.103 21.3159H134.87C145.167 21.3159 155.461 21.3159 165.758 21.3068C166.307 21.3068 166.862 21.2284 167.402 21.1228C167.936 21.0203 168.039 20.7971 167.981 20.2451C167.936 19.8168 167.93 19.3825 167.906 18.9512C167.767 16.6498 167.604 14.3515 167.224 12.0743C167.119 11.4348 167.408 11.0156 168.078 10.8738C169.278 10.6205 170.485 10.4063 171.688 10.1771C172.113 10.0956 172.539 10.0142 172.964 9.9388C173.833 9.78195 174.249 10.0745 174.342 10.9522C174.511 12.5508 174.65 14.1554 174.819 15.754C175.033 17.7658 175.099 19.7836 175.048 21.8045C175.015 23.0562 174.831 24.2928 174.391 25.4782C173.438 28.042 171.565 29.4837 168.904 29.9241C168.054 30.0658 167.182 30.1292 166.319 30.1292C155.829 30.1442 145.342 30.1382 134.851 30.1382C133.868 30.1382 133.862 30.1382 133.567 31.0551C132.49 34.4091 130.535 37.0935 127.549 38.9998C126.654 39.5728 125.694 40.0192 124.678 40.345C123.248 40.8034 121.825 40.6828 120.401 40.3329C118.57 39.8865 116.824 39.2049 115.101 38.4538C114.387 38.1401 114.16 37.6244 114.381 36.8794C114.655 35.9564 114.942 35.0395 115.234 34.1226C115.427 33.5163 115.843 33.2328 116.501 33.2901C117.05 33.3384 117.593 33.453 118.142 33.5254C120.09 33.7878 122.024 33.8602 123.909 33.1514C125.459 32.5692 126.889 31.7941 127.96 30.4881C128.131 30.2769 128.249 30.0176 128.478 29.6345C128.08 29.6828 127.851 29.7039 127.625 29.737C125.909 29.9844 124.186 30.1865 122.446 30.1382C120.847 30.093 119.342 29.7491 118.06 28.7236C116.851 27.7554 116.169 26.4554 115.991 24.9564C115.479 20.6644 116.374 16.7222 119.194 13.3471C120.422 11.8782 121.99 10.8919 123.915 10.6566C125.794 10.4274 127.549 10.8829 129.124 11.9566C130.768 13.0786 131.862 14.638 132.674 16.4206C133.343 17.8985 133.757 19.4488 134.013 21.0474C134.025 21.1138 134.055 21.1771 134.103 21.3189V21.3159ZM128.11 22.1151C127.803 20.7156 127.408 19.4187 126.313 18.4746C125.36 17.6482 123.71 17.2319 122.527 18.6254C122.03 19.2136 121.773 19.9073 121.71 20.6613C121.644 21.4455 122.063 21.9945 122.838 22.1845C123.161 22.2629 123.499 22.3202 123.83 22.3233C124.886 22.3263 125.945 22.3112 127 22.278C127.353 22.266 127.7 22.1785 128.11 22.1182V22.1151Z" fill="white"/>
<path d="M177.992 66.7694C178.142 68.6455 177.72 70.6211 176.867 72.5243C175.778 74.9523 174.08 76.8314 171.83 78.2279C169.408 79.73 166.738 80.5142 163.93 80.8158C160.606 81.1717 157.288 81.0692 154.022 80.2789C151.048 79.5611 148.342 78.2973 146.126 76.1407C144.265 74.328 143.046 72.1443 142.542 69.5866C142.096 67.3123 142.105 65.0412 142.714 62.7941C143.707 59.1234 145.99 56.4782 149.277 54.6504C151.558 53.3836 154.022 52.6899 156.604 52.3581C158.329 52.1379 160.057 52.0474 161.792 52.1228C164.919 52.2586 167.957 52.8135 170.768 54.2794C174.858 56.4088 177.247 59.7628 177.949 64.3173C177.967 64.4349 177.989 64.5555 177.989 64.6762C177.992 65.3036 177.989 65.9279 177.989 66.7694H177.992ZM153.06 66.5553C153.102 68.2202 153.277 69.864 153.962 71.4083C154.574 72.7928 155.521 73.8695 156.908 74.5452C158.42 75.2811 160 75.3927 161.626 75.1484C163.333 74.892 164.681 74.0415 165.664 72.6238C166.304 71.6979 166.648 70.6543 166.895 69.5685C167.185 68.2896 167.197 66.9956 167.16 65.6957C167.124 64.3655 166.88 63.0686 166.376 61.8349C165.999 60.915 165.48 60.0886 164.723 59.416C163.342 58.1884 161.695 57.8083 159.907 57.8506C156.899 57.9199 154.628 59.6 153.681 62.4472C153.235 63.7834 153.096 65.1618 153.063 66.5583L153.06 66.5553Z" fill="white"/>
<path d="M140.419 52.8285V58.2848H130.963V59.262C130.963 65.406 130.963 71.55 130.963 77.6939C130.963 77.887 130.951 78.08 130.963 78.2731C131.06 79.6726 130.475 80.5322 128.783 80.4869C126.596 80.4266 124.4 80.5714 122.21 80.5955C121.203 80.6076 120.6 79.9832 120.563 78.9818C120.557 78.7888 120.563 78.5958 120.563 78.4027C120.563 71.9933 120.563 65.584 120.563 59.1746V58.2335C120.422 58.1913 120.334 58.143 120.247 58.14C119.14 58.1038 118.033 58.0646 116.926 58.0465C115.095 58.0163 113.264 58.0043 111.43 57.9832C111.289 57.9832 111.15 57.962 110.963 57.947V52.2192C111.533 52.2192 112.079 52.2072 112.622 52.2192C115.053 52.2765 117.484 52.3459 119.915 52.4002C122.322 52.4545 124.729 52.5088 127.139 52.545C130.873 52.6023 134.607 52.6385 138.341 52.6958C139.01 52.7048 139.68 52.7772 140.422 52.8225L140.419 52.8285Z" fill="white"/>
<path d="M165.137 7.37194C164.865 7.20907 164.612 7.11557 164.431 6.94364C163.55 6.09006 162.678 5.22442 161.825 4.34369C161.369 3.87317 161.378 3.41471 161.831 2.95625C162.69 2.07854 163.559 1.21289 164.437 0.353277C164.907 -0.1082 165.342 -0.1082 165.815 0.350261C166.47 0.986676 167.106 1.6442 167.761 2.28665C168.421 2.93212 168.726 2.92608 169.389 2.26856C169.987 1.67437 170.578 1.07415 171.178 0.482973C171.823 -0.150426 172.191 -0.153443 172.816 0.467892C173.633 1.28226 174.454 2.09663 175.268 2.91704C175.817 3.469 175.82 3.82792 175.271 4.38592C174.444 5.22743 173.612 6.06292 172.771 6.88935C172.222 7.42925 171.79 7.42322 171.217 6.86824C170.56 6.23182 169.926 5.57128 169.272 4.93185C168.714 4.38592 168.424 4.3829 167.872 4.91978C167.2 5.5743 166.551 6.25294 165.872 6.90142C165.676 7.08842 165.408 7.20605 165.14 7.37496L165.137 7.37194Z" fill="white"/>
<path d="M0.00643369 66.4168C0.00643369 59.3107 0.00643369 52.2045 0.00643369 45.0984C0.00643369 44.9295 0.0154823 44.7606 0.00643369 44.5917C-0.0810357 43.2977 0.896209 42.7186 1.98807 42.8996C4.38292 43.2977 6.80492 43.5269 9.20882 43.8648C11.7545 44.2237 14.3363 44.3564 16.8126 45.1316C19.6358 46.0153 22.1633 47.4239 24.3833 49.3663C28.428 52.9043 30.7866 57.3803 31.4864 62.6797C32.1258 67.5207 31.5799 72.235 29.3871 76.6628C26.9591 81.5701 23.2673 85.1775 18.1609 87.2707C16.5472 87.9313 14.8581 88.2932 13.1299 88.5073C10.2434 88.8663 7.35688 89.2373 4.47039 89.6052C3.56553 89.7198 2.65465 89.8164 1.75582 89.9762C0.853982 90.1361 -0.0267444 89.4816 0.00944988 88.4591C0.0154823 88.2419 0.00944988 88.0247 0.00944988 87.8076C0.00944988 80.6773 0.00944988 73.5471 0.00944988 66.4168H0.00643369ZM10.2705 80.2309C11.0004 80.1827 11.6459 80.1495 12.2853 80.0952C14.7013 79.8871 16.6377 78.8194 18.0764 76.8588C19.1924 75.3387 19.868 73.6225 20.2662 71.7977C20.791 69.3938 20.9569 66.9627 20.7699 64.4985C20.6613 63.0809 20.4984 61.6784 20.1395 60.306C19.6659 58.4933 18.9119 56.8193 17.63 55.4168C15.6454 53.2451 13.0695 52.7565 10.2705 52.7957V80.2309Z" fill="white"/>
<path d="M249.577 77.6642C245.928 77.4681 242.308 77.2721 238.662 77.076C238.405 78.008 238.161 78.8857 237.926 79.7664C237.673 80.7196 237.428 81.6727 237.178 82.6258C236.925 83.5819 236.469 83.968 235.474 83.9258C234.008 83.8624 232.548 83.7297 231.085 83.6241C230.271 83.5668 229.456 83.4854 228.639 83.4492C227.194 83.3829 226.501 82.4297 226.956 81.0513C227.933 78.0864 228.959 75.1396 229.915 72.1687C231.906 65.9945 233.869 59.8083 235.839 53.6252C236.276 52.2528 236.701 50.8744 237.115 49.493C237.232 49.0948 237.413 48.935 237.866 48.9018C239.95 48.754 242.031 48.5429 244.115 48.3589C245.837 48.2051 247.563 48.0573 249.288 47.9065C249.906 47.8522 250.528 47.7919 251.194 47.7285C251.535 48.8475 251.876 49.9183 252.189 50.9981C253.933 56.9973 255.694 62.9934 257.398 69.0017C258.801 73.9512 260.134 78.9189 261.497 83.8775C261.537 84.0163 261.576 84.155 261.6 84.2968C261.784 85.4339 261.027 86.2995 259.869 86.2362C259.172 86.2 258.478 86.1155 257.784 86.0431C256.135 85.8742 254.488 85.6842 252.838 85.5304C251.981 85.4489 251.469 85.0146 251.26 84.1912C250.877 82.674 250.494 81.1599 250.105 79.6428C249.945 79.0154 249.776 78.388 249.583 77.6581L249.577 77.6642ZM247.888 70.4163C247.78 69.3003 244.411 56.4815 244.055 55.9446C243.443 58.3937 242.839 60.7765 242.248 63.1654C241.66 65.5512 240.987 67.9189 240.441 70.4163H247.885H247.888Z" fill="white"/>
<path d="M55.7844 77.0429C52.1679 77.2299 48.5485 77.4169 44.8778 77.6069C44.6275 78.6324 44.3832 79.6338 44.1389 80.6321C43.8463 81.8477 43.5507 83.0602 43.2642 84.2787C43.1164 84.9091 42.7454 85.3012 42.0939 85.3887C41.4273 85.4761 40.7577 85.5455 40.0911 85.6149C38.3448 85.7928 36.5954 85.9436 34.852 86.1457C33.4736 86.3056 32.7226 85.5123 33.0514 84.1641C33.2353 83.4191 33.4465 82.6801 33.6546 81.9381C35.3225 76.0144 36.9664 70.0845 38.6675 64.1728C40.1907 58.8854 41.7832 53.6162 43.3456 48.3408C43.3848 48.2051 43.4421 48.0754 43.4844 47.9638C43.9157 47.7708 56.3936 49.0044 57.4221 49.113C57.6574 49.861 57.9017 50.6331 58.149 51.4083C60.1307 57.6397 62.0942 63.8742 64.097 70.0966C65.2552 73.6949 66.4767 77.2721 67.65 80.8674C67.7737 81.2444 67.8401 81.6757 67.7888 82.0648C67.6923 82.7947 67.0709 83.2743 66.2505 83.3407C64.9083 83.4493 63.5661 83.5428 62.2239 83.6453C61.2406 83.7207 60.2574 83.7901 59.2771 83.8806C58.2938 83.9711 57.6122 83.5216 57.3347 82.463C56.9154 80.8583 56.4509 79.2688 56.0015 77.6702C55.9502 77.4893 55.8779 77.3113 55.7844 77.0399V77.0429ZM50.4427 56.0351C50.3854 56.0351 50.3281 56.0321 50.2708 56.0291C49.0492 60.8067 47.8186 65.5814 46.6725 70.4646C49.2392 70.4525 51.6854 70.4646 54.1948 70.3047C52.931 65.4939 51.6854 60.7615 50.4427 56.0321V56.0351Z" fill="white"/>
<path d="M193.634 66.4977C193.634 62.1635 193.637 57.8262 193.628 53.4919C193.628 52.9339 193.709 52.4121 194.192 52.0864C194.475 51.8933 194.828 51.7094 195.16 51.6852C196.575 51.5797 197.992 51.5374 199.41 51.4711C201.114 51.3896 202.821 51.3233 204.525 51.2268C206.398 51.1212 208.268 50.9583 210.148 51.088C213.622 51.3263 216.883 52.2131 219.733 54.2942C222.571 56.3663 224.333 59.1563 225.066 62.5918C225.702 65.5657 225.645 68.5276 224.722 71.4232C223.165 76.3124 219.839 79.4854 215.007 81.1172C212.509 81.9617 209.924 82.1457 207.309 82.0401C206.085 81.9919 204.86 81.9195 203.636 81.8531C202.052 81.7687 200.466 81.6842 198.882 81.5998C197.706 81.5394 196.529 81.4761 195.353 81.4188C194.213 81.3645 193.637 80.7854 193.634 79.6453C193.628 75.2628 193.634 70.8772 193.634 66.4947V66.4977ZM203.946 75.9112C205.298 76.0711 206.567 76.1314 207.837 75.9565C210.295 75.6217 212.205 74.4182 213.296 72.1772C214.937 68.8081 214.958 65.3003 213.767 61.8015C212.983 59.5032 211.321 58.0494 208.956 57.4371C207.876 57.1566 206.772 57.0842 205.663 57.1475C205.095 57.1807 204.528 57.2079 203.949 57.241V75.9143L203.946 75.9112Z" fill="white"/>
<path d="M293.653 42.7814C292.968 44.6424 292.365 46.3647 291.705 48.0658C289.304 54.2791 286.9 60.4895 284.466 66.6877C283.516 69.1037 282.49 71.4925 281.486 73.8874C281.287 74.3609 281.175 74.8284 281.178 75.3472C281.193 79.0812 281.187 82.8183 281.187 86.5523C281.187 86.7454 281.196 86.9384 281.184 87.1314C281.133 87.9699 280.572 88.5159 279.727 88.4947C279.199 88.4827 278.675 88.3952 278.15 88.3319C276.216 88.1026 274.283 87.8613 272.347 87.6381C271.391 87.5266 270.811 86.9535 270.772 85.9823C270.742 85.2373 270.763 84.4893 270.763 83.7412C270.763 80.8005 270.754 77.8627 270.772 74.9219C270.775 74.379 270.676 73.8783 270.453 73.3897C268.193 68.3919 265.967 63.379 263.669 58.4023C262.004 54.7979 260.24 51.2418 258.52 47.6616C258.43 47.4746 258.358 47.2755 258.249 47.0192C261.92 46.621 265.521 46.2319 269.219 45.8308C271.478 52.2462 273.728 58.6285 276.032 65.1766C278.482 58.1278 280.689 51.1604 282.921 44.1839C286.465 43.7195 289.988 43.258 293.653 42.7754V42.7814Z" fill="white"/>
<path d="M73.4356 25.0314C73.2033 24.6031 72.8927 24.5126 72.5518 24.4372C71.0226 24.1084 69.4964 23.7797 67.9733 23.4268C67.0533 23.2126 66.1816 22.8778 65.4306 22.2746C64.3931 21.4391 63.8592 20.3593 63.826 19.0292C63.7174 14.5351 65.3492 10.6683 68.112 7.21478C69.0862 5.99926 70.2716 5.03408 71.6862 4.34941C73.3391 3.55313 75.013 3.43852 76.7081 4.14732C78.4364 4.86819 79.9264 5.96005 81.4013 7.22987C80.4603 8.86162 79.5313 10.4783 78.6325 12.0377C77.5587 11.6606 76.5513 11.2987 75.5348 10.9579C74.8472 10.7256 74.1896 10.8915 73.5924 11.2444C72.2291 12.0558 71.2307 13.2079 70.5973 14.6587C70.1962 15.5757 70.4073 16.004 71.3785 16.2362C73.0163 16.6313 74.6632 16.9752 76.2979 17.3793C78.4183 17.9011 79.7635 19.4032 80.029 21.5598C80.6262 26.4128 78.3882 30.7953 73.9694 33.1057C70.7904 34.7676 67.4002 35.6785 63.8743 36.1822C60.9395 36.6015 57.9927 36.8247 55.0278 36.7945C53.2271 36.7764 51.4204 36.8307 49.6228 36.7221C45.7259 36.4899 41.8772 35.9047 38.0949 34.9004C34.7349 34.0076 31.4985 32.8011 28.413 31.1995C27.496 30.7229 26.6002 30.2011 25.7165 29.6612C24.697 29.0399 24.4467 28.0657 25.0107 26.9859C25.5114 26.0267 26.0392 25.0797 26.5731 24.1386C27.1281 23.1583 28.0933 22.8296 29.0946 23.3212C31.9178 24.7026 34.8767 25.695 37.9109 26.4761C40.4747 27.1367 43.0746 27.6253 45.7048 27.9571C48.3349 28.2889 50.968 28.494 53.6192 28.4879C55.6401 28.4819 57.6579 28.4216 59.6727 28.2557C62.6045 28.0174 65.506 27.6163 68.3654 26.9346C69.8885 26.5727 71.3876 26.1263 72.7901 25.4084C72.9982 25.3029 73.1943 25.1701 73.4356 25.0284V25.0314Z" fill="white"/>
<path d="M231.236 24.8747C231.07 24.4132 230.708 24.3439 230.352 24.2654C228.895 23.9457 227.432 23.6501 225.985 23.2912C225.312 23.1253 224.642 22.8961 224.021 22.5945C222.57 21.8826 221.771 20.6822 221.605 19.0746C221.466 17.7173 221.653 16.3841 221.955 15.0721C222.706 11.7965 224.148 8.85875 226.458 6.40358C227.794 4.98597 229.36 3.89109 231.372 3.58043C232.825 3.35723 234.137 3.73123 235.401 4.38575C236.752 5.08852 237.956 6.00544 239.196 7.04904C238.264 8.66572 237.332 10.2794 236.366 11.9473C236.107 11.8267 235.899 11.7211 235.682 11.6336C235.082 11.3863 234.49 11.1179 233.878 10.9067C232.771 10.5237 231.746 10.6866 230.823 11.4346C229.743 12.3123 228.826 13.3167 228.325 14.6408C228.042 15.3918 228.217 15.7628 228.983 16.0071C229.417 16.1459 229.867 16.2333 230.313 16.3329C231.441 16.5862 232.566 16.8396 233.694 17.0869C236.237 17.6509 237.681 19.2405 237.874 21.8374C238.098 24.8264 237.386 27.5621 235.474 29.9359C234.475 31.1755 233.248 32.1166 231.857 32.8676C228.944 34.4421 225.81 35.3439 222.561 35.8717C220.519 36.2035 218.462 36.3935 216.393 36.5202C213.552 36.6982 210.708 36.7253 207.872 36.5745C202.612 36.294 197.455 35.4012 192.457 33.688C189.35 32.6233 186.376 31.269 183.589 29.5287C182.44 28.8108 182.202 27.8788 182.844 26.6995C183.339 25.7916 183.84 24.8838 184.352 23.9849C184.943 22.9474 185.878 22.685 186.991 23.1675C188.424 23.7859 189.863 24.4072 191.326 24.9531C194.082 25.9847 196.939 26.6573 199.825 27.2032C202.546 27.716 205.291 28.0628 208.056 28.2136C209.812 28.3101 211.573 28.3675 213.329 28.3132C217.615 28.1774 221.88 27.8034 226.057 26.7719C227.429 26.4341 228.763 25.9274 230.099 25.4629C230.5 25.3241 230.862 25.0708 231.236 24.8717V24.8747Z" fill="white"/>
<path d="M64.5078 49.6349C68.1936 49.8973 71.7768 50.1506 75.4174 50.41C77.6705 55.3958 79.9356 60.4087 82.2732 65.5814C83.1871 63.8954 83.8627 62.2847 84.6348 60.7254C85.404 59.172 86.1248 57.5976 86.8789 56.0382C87.645 54.4577 88.4262 52.8833 89.2405 51.2304C92.7876 51.4023 96.3527 51.5743 100.042 51.7522C99.4534 52.6872 98.9346 53.4926 98.4369 54.3069C95.2156 59.5551 91.9943 64.8063 88.7761 70.0605C88.3508 70.7572 87.7898 71.4298 87.5877 72.1899C87.3765 72.9801 87.5183 73.8639 87.5183 74.7054C87.5153 76.5362 87.5183 78.3671 87.5183 80.1979C87.5183 81.4194 86.9543 81.9835 85.7267 82.0558C83.4947 82.1855 81.2627 82.3243 79.0308 82.4721C77.77 82.5565 77.0552 81.9261 77.0491 80.6624C77.0401 78.1077 77.0401 75.5529 77.0521 73.0013C77.0521 72.573 76.9405 72.214 76.7324 71.8461C73.9847 66.987 71.2339 62.1309 68.5163 57.2568C67.2646 55.0067 66.0883 52.7174 64.8818 50.4402C64.7612 50.2109 64.6647 49.9696 64.5108 49.6318L64.5078 49.6349Z" fill="white"/>
<path d="M90.0609 10.6745C90.8029 9.22073 91.5268 7.80916 92.2477 6.39457C92.5312 5.83657 92.8057 5.27556 93.0892 4.71757C93.4753 3.95447 93.8493 3.81874 94.5852 4.28927C95.6771 4.98902 96.7991 5.66767 97.7944 6.49108C100.349 8.60845 102.24 11.2084 103.205 14.4237C104.475 18.6523 103.682 22.4527 100.841 25.8279C99.945 26.8896 98.6993 27.3661 97.4265 27.7492C95.7133 28.268 93.9518 28.5213 92.1572 28.4881C91.0533 28.467 89.9403 28.464 88.8454 28.3373C87.5545 28.1865 86.3842 27.6979 85.4793 26.6965C84.7042 25.8399 84.3483 24.7963 84.1492 23.7045C83.7752 21.6595 83.8114 19.5844 83.8536 17.5183C83.8717 16.6134 84.487 16.0675 85.3949 16.0464C86.0946 16.0313 86.7944 16.0283 87.4911 16.0464C88.4231 16.0705 88.96 16.6074 89.0053 17.5333C89.0083 17.6299 89.0053 17.7264 89.0053 17.8229C89.0234 18.8725 89.4848 19.4335 90.5435 19.5542C91.3066 19.6417 92.0878 19.711 92.8479 19.6386C94.2323 19.5089 95.6107 19.2737 96.9891 19.0746C97.1731 19.0475 97.348 18.96 97.535 18.8967C97.6255 18.3628 97.3842 17.9315 97.1882 17.5032C96.5397 16.0856 95.5745 14.8912 94.4676 13.8053C93.237 12.5989 91.8224 11.6488 90.2992 10.8555C90.2389 10.8223 90.1876 10.7711 90.0609 10.6715V10.6745Z" fill="white"/>
<path d="M254.389 19.0715C254.223 18.1305 253.819 17.3191 253.324 16.553C251.955 14.4236 250.112 12.7978 247.931 11.5371C247.829 11.4767 247.714 11.4315 247.612 11.3712C246.969 10.9911 246.897 10.7649 247.244 10.0802C248.133 8.3188 249.026 6.56036 249.925 4.80494C250.254 4.16249 250.571 4.05994 251.201 4.4068C254.555 6.24366 257.251 8.75614 259.007 12.1795C259.845 13.8143 260.325 15.5637 260.515 17.4126C260.823 20.4348 259.836 23.0348 258.114 25.4266C257.254 26.624 256.06 27.3509 254.673 27.8064C253.038 28.3433 251.361 28.663 249.645 28.6871C248.203 28.7052 246.758 28.7927 245.322 28.5152C243.09 28.0869 241.618 26.8382 241.1 24.6092C240.867 23.6109 240.741 22.5763 240.683 21.5508C240.614 20.3021 240.659 19.0474 240.668 17.7957C240.674 16.7762 241.205 16.2544 242.234 16.2423C242.909 16.2363 243.585 16.2303 244.258 16.2423C245.184 16.2604 245.711 16.8033 245.736 17.7353C245.736 17.8319 245.733 17.9284 245.739 18.0249C245.814 19.0896 246.188 19.6114 247.241 19.732C248.308 19.8527 249.406 19.8678 250.48 19.7803C251.647 19.6868 252.806 19.4274 253.964 19.2314C254.102 19.2072 254.229 19.1348 254.392 19.0715H254.389Z" fill="white"/>
<path d="M207.025 38.5596C207.327 38.7315 207.668 38.8582 207.921 39.0814C208.425 39.5278 208.88 40.0315 209.363 40.502C210.111 41.2319 210.672 41.2259 211.408 40.499C211.869 40.0405 212.349 39.5971 212.783 39.1145C213.314 38.5264 214.321 38.4751 214.885 39.1266C215.498 39.8354 216.209 40.4598 216.867 41.1324C217.491 41.7688 217.485 42.4505 216.855 43.0929C216.179 43.7806 215.498 44.4622 214.807 45.1349C214.201 45.726 213.507 45.7502 212.883 45.1771C212.367 44.7035 211.893 44.1908 211.393 43.7022C210.681 43.0084 210.096 42.9994 209.393 43.6811C208.889 44.1667 208.41 44.6764 207.906 45.159C207.297 45.7441 206.594 45.7471 205.988 45.159C205.297 44.4894 204.615 43.8047 203.943 43.114C203.294 42.4505 203.3 41.7567 203.955 41.0841C204.612 40.4115 205.288 39.757 205.945 39.0874C206.232 38.7948 206.555 38.6229 207.025 38.5596Z" fill="white"/>
<path d="M59.4823 42.2809C59.5306 42.6791 59.3828 42.9867 59.1083 43.2582C58.4206 43.9338 57.748 44.6245 57.0573 45.2971C56.4058 45.9305 55.694 45.9215 55.0274 45.276C54.5418 44.8055 54.0351 44.353 53.6038 43.8373C53.1091 43.2491 52.1228 43.2491 51.6342 43.8312C51.1999 44.347 50.666 44.7723 50.2166 45.276C49.6134 45.9516 48.6271 45.837 48.1143 45.2609C47.5081 44.5762 46.8234 43.9609 46.181 43.3094C45.4812 42.5976 45.4902 41.9733 46.2021 41.2494C46.8445 40.5979 47.493 39.9494 48.1445 39.307C48.8382 38.6193 49.4988 38.6193 50.2136 39.307C50.6992 39.7775 51.1637 40.2661 51.6463 40.7366C52.2978 41.373 52.9312 41.367 53.5947 40.7185C54.0773 40.248 54.5418 39.7564 55.0304 39.2889C55.7181 38.6283 56.3757 38.6223 57.0543 39.2798C57.745 39.9494 58.4176 40.6431 59.1053 41.3188C59.3798 41.5902 59.5427 41.8888 59.4823 42.2779V42.2809Z" fill="white"/>
</g>
<defs>
<clipPath id="clip0_287_786">
<rect width="293.653" height="90" fill="white"/>
</clipPath>
</defs>
</svg>
