<svg width="164" height="50" viewBox="0 0 164 50" fill="none" xmlns="http://www.w3.org/2000/svg">
<g clip-path="url(#clip0_297_3284)">
<path d="M74.5011 11.8419H74.9267C80.6474 11.8419 86.3664 11.8419 92.0871 11.8369C92.3921 11.8369 92.7004 11.7933 93.0003 11.7347C93.2969 11.6777 93.3539 11.5537 93.3221 11.247C93.2969 11.0091 93.2936 10.7678 93.2802 10.5282C93.2031 9.24965 93.1126 7.9728 92.9015 6.70767C92.8428 6.35243 93.0037 6.11952 93.3757 6.04076C94.0426 5.90001 94.7129 5.78103 95.3815 5.65368C95.6177 5.60844 95.854 5.5632 96.0903 5.52131C96.5728 5.43417 96.8041 5.59671 96.856 6.08433C96.9499 6.97243 97.0269 7.86388 97.1208 8.75198C97.2398 9.86964 97.2766 10.9907 97.2481 12.1134C97.2297 12.8087 97.1275 13.4958 96.8828 14.1543C96.3533 15.5786 95.3128 16.3796 93.8348 16.6242C93.3623 16.703 92.878 16.7382 92.3988 16.7382C86.5708 16.7465 80.7446 16.7432 74.9166 16.7432C74.3704 16.7432 74.367 16.7432 74.2028 17.2526C73.6046 19.1159 72.5188 20.6073 70.8599 21.6663C70.3622 21.9847 69.8293 22.2327 69.2646 22.4136C68.4704 22.6683 67.6795 22.6013 66.8885 22.4069C65.8714 22.1589 64.9012 21.7802 63.9444 21.363C63.5473 21.1887 63.4216 20.9022 63.5439 20.4883C63.6964 19.9755 63.8556 19.4661 64.0181 18.9567C64.1254 18.6199 64.3566 18.4624 64.7219 18.4943C65.0269 18.5211 65.3285 18.5847 65.6335 18.625C66.716 18.7707 67.79 18.811 68.8373 18.4172C69.6986 18.0938 70.4929 17.6631 71.0877 16.9376C71.1833 16.8203 71.2486 16.6762 71.376 16.4634C71.1548 16.4902 71.0274 16.5019 70.9018 16.5203C69.9483 16.6577 68.9915 16.77 68.0246 16.7432C67.1365 16.7181 66.3004 16.527 65.5882 15.9573C64.9163 15.4194 64.5376 14.6972 64.4387 13.8644C64.1539 11.48 64.6515 9.28987 66.2183 7.4148C66.9003 6.59876 67.7716 6.05082 68.8407 5.92011C69.8846 5.79276 70.8599 6.04579 71.7346 6.64232C72.6478 7.26567 73.256 8.13198 73.7068 9.1223C74.0788 9.94337 74.3084 10.8047 74.4508 11.6928C74.4575 11.7296 74.4743 11.7648 74.5011 11.8436V11.8419ZM71.1715 12.2859C71.0006 11.5084 70.7811 10.7879 70.1728 10.2634C69.6433 9.80429 68.7267 9.57305 68.0699 10.3472C67.7934 10.674 67.651 11.0594 67.6158 11.4783C67.5789 11.9139 67.8118 12.2189 68.2425 12.3245C68.4218 12.3681 68.6094 12.3999 68.7938 12.4016C69.3802 12.4032 69.9684 12.3949 70.5549 12.3764C70.7509 12.3697 70.9436 12.3211 71.1715 12.2876V12.2859Z" fill="#243B7B"/>
<path d="M98.8834 37.0941C98.9672 38.1363 98.7326 39.2339 98.2584 40.2912C97.6535 41.6401 96.7101 42.6841 95.4601 43.4599C94.1145 44.2944 92.6316 44.73 91.0715 44.8976C89.2249 45.0953 87.3817 45.0384 85.567 44.5993C83.9148 44.2005 82.4117 43.4984 81.1801 42.3003C80.1462 41.2933 79.4693 40.0801 79.1894 38.6591C78.9414 37.3957 78.9465 36.1339 79.2849 34.8855C79.8362 32.8463 81.1047 31.3767 82.9312 30.3613C84.198 29.6575 85.567 29.2721 87.0013 29.0878C87.9598 28.9654 88.92 28.9152 89.8835 28.9571C91.6211 29.0325 93.3085 29.3408 94.8702 30.1552C97.1424 31.3382 98.4696 33.2015 98.86 35.7318C98.87 35.7971 98.8818 35.8641 98.8818 35.9312C98.8834 36.2797 98.8818 36.6266 98.8818 37.0941H98.8834ZM85.0324 36.9751C85.0559 37.9001 85.1531 38.8133 85.5335 39.6712C85.8736 40.4404 86.3998 41.0386 87.1706 41.4139C88.0101 41.8228 88.8881 41.8848 89.7913 41.749C90.7397 41.6066 91.4888 41.1341 92.035 40.3465C92.3903 39.8321 92.5813 39.2523 92.7187 38.6491C92.8796 37.9386 92.8863 37.2197 92.8662 36.4975C92.846 35.7586 92.7103 35.038 92.4305 34.3527C92.221 33.8416 91.9328 33.3825 91.5122 33.0088C90.7448 32.3268 89.8299 32.1157 88.8362 32.1391C87.1656 32.1777 85.9038 33.111 85.3776 34.6928C85.1296 35.4352 85.0526 36.2009 85.0341 36.9768L85.0324 36.9751Z" fill="#243B7B"/>
<path d="M78.01 29.3492V32.3805H72.7568V32.9234C72.7568 36.3367 72.7568 39.75 72.7568 43.1633C72.7568 43.2706 72.7501 43.3778 72.7568 43.485C72.8104 44.2626 72.4853 44.7401 71.5453 44.715C70.3304 44.6815 69.1106 44.7619 67.894 44.7753C67.3344 44.782 66.9992 44.4351 66.9791 43.8788C66.9758 43.7716 66.9791 43.6643 66.9791 43.5571C66.9791 39.9963 66.9791 36.4355 66.9791 32.8748V32.352C66.9004 32.3285 66.8518 32.3017 66.8032 32.3C66.1882 32.2799 65.5733 32.2581 64.9583 32.2481C63.9412 32.2313 62.924 32.2246 61.9052 32.2129C61.8265 32.2129 61.7494 32.2012 61.6455 32.1928V29.0107C61.9622 29.0107 62.2655 29.004 62.5671 29.0107C63.9177 29.0425 65.2683 29.0811 66.6189 29.1112C67.956 29.1414 69.2932 29.1716 70.6321 29.1917C72.7065 29.2235 74.781 29.2436 76.8555 29.2755C77.2275 29.2805 77.5995 29.3207 78.0117 29.3458L78.01 29.3492Z" fill="#243B7B"/>
<path d="M91.7422 4.09531C91.5914 4.00483 91.4506 3.95288 91.3501 3.85737C90.8608 3.38316 90.3765 2.90224 89.9023 2.41295C89.6493 2.15155 89.6543 1.89685 89.9057 1.64215C90.3832 1.15453 90.8658 0.673618 91.3534 0.196055C91.6148 -0.0603212 91.8561 -0.0603212 92.1192 0.194379C92.4828 0.547943 92.8364 0.913237 93.2 1.27015C93.567 1.62874 93.7362 1.62539 94.1049 1.2601C94.4367 0.929993 94.7651 0.596537 95.0985 0.268108C95.4571 -0.0837804 95.6616 -0.0854561 96.0084 0.25973C96.4625 0.712158 96.9183 1.16459 97.3707 1.62037C97.6757 1.92701 97.6774 2.12641 97.3724 2.43641C96.9133 2.90392 96.4508 3.36808 95.9833 3.82721C95.6783 4.12715 95.4387 4.1238 95.1203 3.81548C94.755 3.46191 94.4031 3.09495 94.0395 2.73971C93.7295 2.43641 93.5687 2.43474 93.262 2.733C92.8883 3.09662 92.5281 3.47364 92.1511 3.83391C92.0421 3.9378 91.893 4.00315 91.7439 4.09699L91.7422 4.09531Z" fill="#243B7B"/>
<path d="M0.00303174 36.898C0.00303174 32.9502 0.00303174 29.0023 0.00303174 25.0545C0.00303174 24.9606 0.00805872 24.8668 0.00303174 24.773C-0.0455624 24.0541 0.497351 23.7324 1.10394 23.8329C2.43441 24.0541 3.77997 24.1814 5.11547 24.3691C6.52972 24.5685 7.96409 24.6423 9.33981 25.0729C10.9082 25.5639 12.3124 26.3464 13.5457 27.4255C15.7928 29.3911 17.1031 31.8777 17.4919 34.8219C17.8471 37.5113 17.5438 40.1304 16.3256 42.5902C14.9767 45.3165 12.9257 47.3206 10.0888 48.4835C9.19235 48.8505 8.25398 49.0516 7.29383 49.1705C5.69022 49.37 4.08661 49.5761 2.48301 49.7805C1.98031 49.8442 1.47426 49.8978 0.974914 49.9866C0.473892 50.0754 -0.0154005 49.7118 0.0047074 49.1437C0.00805872 49.0231 0.0047074 48.9024 0.0047074 48.7818C0.0047074 44.8205 0.0047074 40.8593 0.0047074 36.898H0.00303174ZM5.7053 44.5725C6.11081 44.5457 6.4694 44.5273 6.82464 44.4971C8.16684 44.3815 9.24262 43.7883 10.0419 42.6992C10.6619 41.8546 11.0372 40.9012 11.2584 39.8874C11.55 38.5519 11.6422 37.2013 11.5383 35.8323C11.4779 35.0447 11.3875 34.2656 11.1881 33.5031C10.925 32.4961 10.5061 31.5661 9.79391 30.7869C8.69133 29.5804 7.26031 29.309 5.7053 29.3307V44.5725Z" fill="#DD1F26"/>
<path d="M138.654 43.1465C136.627 43.0376 134.616 42.9287 132.59 42.8198C132.448 43.3376 132.312 43.8252 132.181 44.3145C132.04 44.844 131.905 45.3735 131.766 45.903C131.625 46.4342 131.372 46.6487 130.819 46.6252C130.004 46.59 129.193 46.5163 128.381 46.4576C127.928 46.4258 127.476 46.3806 127.022 46.3605C126.219 46.3236 125.834 45.7941 126.087 45.0283C126.63 43.3811 127.199 41.744 127.731 40.0935C128.837 36.6634 129.927 33.2266 131.022 29.7915C131.265 29.0291 131.501 28.2633 131.73 27.4959C131.796 27.2747 131.896 27.1859 132.148 27.1675C133.306 27.0853 134.462 26.9681 135.62 26.8658C136.576 26.7804 137.535 26.6983 138.493 26.6145C138.837 26.5843 139.182 26.5508 139.552 26.5156C139.742 27.1373 139.931 27.7322 140.105 28.332C141.074 31.6649 142.052 34.9961 142.999 38.334C143.778 41.0838 144.519 43.8436 145.276 46.5984C145.298 46.6755 145.32 46.7526 145.333 46.8313C145.436 47.463 145.015 47.944 144.372 47.9088C143.985 47.8887 143.599 47.8417 143.214 47.8015C142.297 47.7077 141.382 47.6021 140.466 47.5167C139.99 47.4714 139.705 47.2301 139.589 46.7727C139.376 45.9298 139.164 45.0886 138.947 44.2458C138.859 43.8972 138.765 43.5487 138.658 43.1432L138.654 43.1465ZM137.716 39.1199C137.656 38.4999 135.784 31.3784 135.586 31.0801C135.246 32.4408 134.911 33.7645 134.582 35.0916C134.256 36.4171 133.882 37.7325 133.579 39.1199H137.714H137.716Z" fill="#DD1F26"/>
<path d="M30.9914 42.8014C28.9823 42.9053 26.9715 43.0091 24.9322 43.1147C24.7932 43.6844 24.6574 44.2408 24.5217 44.7954C24.3592 45.4707 24.1949 46.1443 24.0358 46.8213C23.9537 47.1715 23.7475 47.3893 23.3856 47.4379C23.0153 47.4865 22.6433 47.525 22.273 47.5636C21.3028 47.6625 20.3309 47.7462 19.3623 47.8585C18.5966 47.9473 18.1793 47.5066 18.362 46.7576C18.4642 46.3437 18.5815 45.9332 18.6971 45.521C19.6237 42.23 20.537 38.9356 21.4821 35.6513C22.3283 32.7139 23.213 29.7865 24.081 26.8558C24.1028 26.7804 24.1346 26.7083 24.1581 26.6463C24.3977 26.5391 31.3299 27.2244 31.9013 27.2848C32.032 27.7003 32.1677 28.1293 32.3051 28.5599C33.406 32.0218 34.4969 35.4854 35.6095 38.9423C36.253 40.9414 36.9316 42.9287 37.5835 44.9261C37.6522 45.1356 37.689 45.3752 37.6605 45.5913C37.6069 45.9968 37.2617 46.2633 36.806 46.3001C36.0603 46.3605 35.3146 46.4124 34.569 46.4694C34.0227 46.5113 33.4764 46.5498 32.9318 46.6001C32.3856 46.6504 32.0069 46.4007 31.8527 45.8125C31.6198 44.9211 31.3617 44.038 31.1121 43.1499C31.0836 43.0494 31.0434 42.9505 30.9914 42.7997V42.8014ZM28.0238 31.1304C27.992 31.1304 27.9602 31.1287 27.9283 31.127C27.2497 33.7813 26.566 36.4339 25.9293 39.1467C27.3552 39.14 28.7142 39.1467 30.1083 39.0579C29.4062 36.3853 28.7142 33.7562 28.0238 31.1287V31.1304Z" fill="#DD1F26"/>
<path d="M107.574 36.9433C107.574 34.5353 107.575 32.1257 107.57 29.7178C107.57 29.4078 107.616 29.1179 107.884 28.937C108.041 28.8297 108.237 28.7275 108.422 28.7141C109.207 28.6554 109.995 28.632 110.783 28.5951C111.729 28.5499 112.678 28.513 113.624 28.4594C114.665 28.4007 115.704 28.3103 116.748 28.3823C118.678 28.5147 120.49 29.0073 122.073 30.1635C123.65 31.3147 124.629 32.8647 125.036 34.7733C125.389 36.4255 125.357 38.071 124.845 39.6796C123.98 42.3958 122.132 44.1586 119.447 45.0652C118.06 45.5344 116.624 45.6366 115.171 45.5779C114.491 45.5511 113.81 45.5109 113.13 45.474C112.25 45.4271 111.369 45.3802 110.489 45.3333C109.836 45.2998 109.182 45.2646 108.529 45.2327C107.895 45.2026 107.575 44.8808 107.574 44.2474C107.57 41.8127 107.574 39.3763 107.574 36.9416V36.9433ZM113.303 42.173C114.053 42.2618 114.759 42.2953 115.464 42.1981C116.83 42.0121 117.891 41.3435 118.497 40.0985C119.409 38.2268 119.421 36.278 118.759 34.3342C118.323 33.0574 117.4 32.2497 116.086 31.9096C115.486 31.7537 114.873 31.7135 114.256 31.7487C113.941 31.7671 113.626 31.7822 113.304 31.8007V42.1747L113.303 42.173Z" fill="#DD1F26"/>
<path d="M163.141 23.7675C162.76 24.8014 162.425 25.7582 162.058 26.7033C160.724 30.1552 159.389 33.6053 158.037 37.0488C157.509 38.391 156.939 39.7181 156.381 41.0486C156.27 41.3117 156.208 41.5714 156.21 41.8596C156.218 43.9341 156.215 46.0102 156.215 48.0847C156.215 48.1919 156.22 48.2992 156.213 48.4064C156.185 48.8723 155.873 49.1756 155.404 49.1638C155.111 49.1571 154.819 49.1085 154.528 49.0733C153.454 48.946 152.379 48.8119 151.304 48.6879C150.773 48.6259 150.451 48.3076 150.429 47.768C150.412 47.3541 150.424 46.9386 150.424 46.523C150.424 44.8892 150.419 43.2571 150.429 41.6234C150.431 41.3217 150.375 41.0436 150.251 40.7721C148.996 37.9956 147.76 35.2106 146.483 32.4458C145.558 30.4434 144.578 28.4678 143.622 26.4788C143.572 26.3749 143.532 26.2643 143.472 26.1218C145.511 25.9007 147.512 25.6845 149.566 25.4616C150.821 29.0258 152.071 32.5715 153.351 36.2093C154.712 32.2933 155.939 28.4225 157.179 24.5467C159.147 24.2887 161.105 24.0323 163.141 23.7642V23.7675Z" fill="#DD1F26"/>
<path d="M40.797 13.9063C40.668 13.6684 40.4954 13.6181 40.306 13.5762C39.4565 13.3935 38.6086 13.2109 37.7624 13.0148C37.2513 12.8959 36.767 12.7099 36.3498 12.3747C35.7734 11.9106 35.4768 11.3107 35.4584 10.5717C35.398 8.07501 36.3046 5.92681 37.8395 4.00818C38.3807 3.33289 39.0392 2.79668 39.8251 2.4163C40.7434 1.97393 41.6734 1.91025 42.6151 2.30403C43.5753 2.70452 44.403 3.31111 45.2224 4.01656C44.6996 4.92309 44.1835 5.82124 43.6842 6.68756C43.0876 6.4781 42.528 6.27702 41.9633 6.08767C41.5812 5.95865 41.2159 6.05081 40.8841 6.24686C40.1267 6.69761 39.5721 7.33772 39.2202 8.14371C38.9973 8.65311 39.1146 8.89105 39.6542 9.02008C40.5641 9.23959 41.479 9.43061 42.3872 9.65515C43.5652 9.94504 44.3125 10.7795 44.46 11.9776C44.7918 14.6738 43.5484 17.1085 41.0936 18.392C39.3275 19.3153 37.444 19.8214 35.4852 20.1012C33.8547 20.3341 32.2176 20.4581 30.5705 20.4414C29.5701 20.4313 28.5664 20.4615 27.5677 20.4012C25.4027 20.2721 23.2646 19.9471 21.1633 19.3891C19.2966 18.8931 17.4986 18.2228 15.7844 17.333C15.275 17.0683 14.7774 16.7784 14.2864 16.4784C13.72 16.1333 13.5809 15.592 13.8943 14.9921C14.1725 14.4593 14.4657 13.9331 14.7623 13.4103C15.0706 12.8657 15.6068 12.6831 16.1631 12.9562C17.7316 13.7237 19.3754 14.2749 21.0611 14.7089C22.4854 15.0759 23.9298 15.3474 25.391 15.5317C26.8522 15.716 28.315 15.83 29.7879 15.8266C30.9106 15.8233 32.0316 15.7897 33.151 15.6976C34.7797 15.5652 36.3917 15.3423 37.9802 14.9636C38.8264 14.7626 39.6592 14.5146 40.4384 14.1158C40.554 14.0571 40.663 13.9834 40.797 13.9046V13.9063Z" fill="#DD1F26"/>
<path d="M128.464 13.8192C128.372 13.5628 128.171 13.5242 127.974 13.4807C127.164 13.3031 126.351 13.1388 125.547 12.9394C125.173 12.8473 124.801 12.7199 124.456 12.5524C123.65 12.1569 123.206 11.49 123.114 10.5969C123.037 9.84282 123.141 9.10218 123.308 8.37326C123.726 6.5535 124.527 4.92141 125.81 3.55742C126.553 2.76986 127.422 2.1616 128.54 1.989C129.348 1.865 130.076 2.07279 130.779 2.4364C131.529 2.82683 132.198 3.33623 132.887 3.91601C132.369 4.81416 131.851 5.71064 131.315 6.63728C131.171 6.57026 131.055 6.51161 130.934 6.46301C130.601 6.32561 130.273 6.17648 129.932 6.05918C129.317 5.84637 128.748 5.93686 128.235 6.35242C127.635 6.84004 127.126 7.39803 126.847 8.13365C126.69 8.55088 126.787 8.75699 127.213 8.89272C127.454 8.9698 127.704 9.01839 127.952 9.07369C128.578 9.21445 129.203 9.3552 129.83 9.49261C131.243 9.80595 132.045 10.689 132.153 12.1318C132.277 13.7923 131.881 15.3122 130.819 16.6309C130.264 17.3196 129.582 17.8424 128.81 18.2597C127.191 19.1343 125.45 19.6354 123.645 19.9286C122.511 20.1129 121.368 20.2185 120.219 20.2889C118.64 20.3877 117.06 20.4028 115.485 20.319C112.562 20.1632 109.697 19.6672 106.921 18.7154C105.195 18.1239 103.542 17.3716 101.994 16.4047C101.356 16.0059 101.223 15.4881 101.58 14.8329C101.855 14.3286 102.133 13.8242 102.418 13.3248C102.746 12.7484 103.266 12.6026 103.884 12.8707C104.68 13.2142 105.479 13.5594 106.292 13.8627C107.824 14.4358 109.411 14.8095 111.014 15.1128C112.526 15.3976 114.05 15.5903 115.587 15.6741C116.562 15.7277 117.541 15.7596 118.516 15.7294C120.897 15.654 123.267 15.4462 125.587 14.8731C126.35 14.6855 127.09 14.404 127.833 14.1459C128.056 14.0688 128.257 13.9281 128.464 13.8175V13.8192Z" fill="#DD1F26"/>
<path d="M35.8369 27.5746C37.8846 27.7204 39.8753 27.8612 41.8978 28.0053C43.1495 30.7752 44.4079 33.5601 45.7065 36.4339C46.2143 35.4972 46.5896 34.6024 47.0186 33.736C47.4459 32.8731 47.8464 31.9984 48.2653 31.1321C48.6909 30.254 49.1249 29.3793 49.5773 28.4611C51.5479 28.5566 53.5285 28.6521 55.5779 28.751C55.2511 29.2704 54.9629 29.7178 54.6864 30.1702C52.8968 33.0859 51.1072 36.0032 49.3193 38.9222C49.083 39.3093 48.7713 39.683 48.6591 40.1052C48.5418 40.5442 48.6205 41.0352 48.6205 41.5027C48.6188 42.5198 48.6205 43.537 48.6205 44.5541C48.6205 45.2327 48.3072 45.5461 47.6252 45.5863C46.3852 45.6584 45.1452 45.7354 43.9052 45.8175C43.2048 45.8645 42.8077 45.5142 42.8043 44.8121C42.7993 43.3929 42.7993 41.9736 42.806 40.556C42.806 40.318 42.744 40.1186 42.6284 39.9142C41.1018 37.2147 39.5736 34.5169 38.0639 31.809C37.3685 30.559 36.715 29.2872 36.0447 28.022C35.9777 27.8947 35.924 27.7606 35.8386 27.573L35.8369 27.5746Z" fill="#DD1F26"/>
<path d="M50.033 5.93016C50.4452 5.12249 50.8474 4.33828 51.2478 3.5524C51.4053 3.2424 51.5578 2.93073 51.7153 2.62073C51.9298 2.19679 52.1376 2.12139 52.5465 2.38279C53.1531 2.77154 53.7764 3.14857 54.3294 3.60602C55.7487 4.78233 56.7993 6.22675 57.3355 8.013C58.041 10.3623 57.6003 12.4736 56.0218 14.3487C55.5241 14.9385 54.8321 15.2033 54.1249 15.4161C53.1732 15.7043 52.1946 15.845 51.1976 15.8266C50.5843 15.8149 49.966 15.8132 49.3577 15.7428C48.6405 15.659 47.9904 15.3876 47.4877 14.8313C47.057 14.3554 46.8593 13.7756 46.7487 13.169C46.5409 12.0329 46.561 10.8801 46.5845 9.73223C46.5945 9.22953 46.9364 8.92624 47.4407 8.91451C47.8295 8.90613 48.2182 8.90446 48.6053 8.91451C49.1231 8.92791 49.4214 9.22618 49.4465 9.74061C49.4482 9.79423 49.4465 9.84785 49.4465 9.90147C49.4566 10.4846 49.7129 10.7963 50.3011 10.8633C50.725 10.9119 51.159 10.9504 51.5813 10.9102C52.3504 10.8382 53.1162 10.7075 53.882 10.5969C53.9842 10.5818 54.0814 10.5332 54.1853 10.498C54.2355 10.2014 54.1015 9.9618 53.9926 9.72385C53.6323 8.93629 53.0961 8.27273 52.4811 7.66949C51.7975 6.99923 51.0116 6.4714 50.1654 6.0307C50.1318 6.01227 50.1034 5.98378 50.033 5.92848V5.93016Z" fill="#DD1F26"/>
<path d="M141.327 10.5952C141.235 10.0724 141.01 9.62164 140.735 9.19602C139.974 8.013 138.951 7.10982 137.739 6.4094C137.682 6.37588 137.618 6.35075 137.561 6.31724C137.205 6.1061 137.164 5.98043 137.357 5.60005C137.851 4.62147 138.347 3.64456 138.847 2.66933C139.029 2.31241 139.205 2.25544 139.556 2.44814C141.419 3.46862 142.917 4.86444 143.892 6.76631C144.358 7.67452 144.624 8.6464 144.73 9.67358C144.901 11.3526 144.353 12.797 143.396 14.1258C142.919 14.791 142.255 15.1949 141.484 15.4479C140.576 15.7462 139.644 15.9238 138.691 15.9372C137.89 15.9473 137.087 15.9958 136.29 15.8417C135.05 15.6037 134.232 14.91 133.944 13.6717C133.815 13.1171 133.744 12.5423 133.712 11.9726C133.674 11.2789 133.699 10.5818 133.704 9.88639C133.707 9.32002 134.002 9.03013 134.574 9.02343C134.949 9.02007 135.324 9.01672 135.698 9.02343C136.213 9.03348 136.506 9.3351 136.519 9.85288C136.519 9.9065 136.518 9.96012 136.521 10.0137C136.563 10.6052 136.771 10.8951 137.355 10.9622C137.949 11.0292 138.558 11.0376 139.155 10.989C139.804 10.937 140.447 10.7929 141.09 10.684C141.167 10.6706 141.238 10.6304 141.328 10.5952H141.327Z" fill="#DD1F26"/>
<path d="M115.014 21.4216C115.181 21.5171 115.371 21.5875 115.512 21.7115C115.791 21.9595 116.044 22.2394 116.312 22.5008C116.728 22.9063 117.04 22.9029 117.449 22.4991C117.705 22.2444 117.971 21.9981 118.213 21.73C118.508 21.4032 119.067 21.3747 119.381 21.7367C119.721 22.1304 120.116 22.4773 120.482 22.851C120.828 23.2045 120.825 23.5832 120.475 23.9401C120.099 24.3222 119.721 24.7009 119.337 25.0746C119 25.403 118.615 25.4164 118.268 25.098C117.981 24.8349 117.718 24.5501 117.44 24.2786C117.045 23.8932 116.72 23.8882 116.329 24.2669C116.049 24.5367 115.783 24.8199 115.503 25.088C115.165 25.4131 114.774 25.4147 114.437 25.088C114.054 24.716 113.675 24.3356 113.301 23.9519C112.941 23.5832 112.944 23.1978 113.308 22.8242C113.673 22.4505 114.049 22.0869 114.414 21.7149C114.573 21.5523 114.752 21.4568 115.014 21.4216Z" fill="#DD1F26"/>
<path d="M33.0451 23.4894C33.0719 23.7106 32.9898 23.8815 32.8373 24.0323C32.4553 24.4077 32.0816 24.7914 31.6979 25.1651C31.3359 25.5169 30.9405 25.5119 30.5701 25.1533C30.3004 24.8919 30.0189 24.6406 29.7792 24.354C29.5044 24.0273 28.9565 24.0273 28.685 24.3507C28.4437 24.6372 28.1471 24.8735 27.8975 25.1533C27.5623 25.5287 27.0144 25.465 26.7295 25.1449C26.3927 24.7646 26.0124 24.4227 25.6554 24.0608C25.2667 23.6653 25.2717 23.3185 25.6672 22.9163C26.0241 22.5544 26.3843 22.1941 26.7463 21.8372C27.1317 21.4551 27.4987 21.4551 27.8958 21.8372C28.1656 22.0986 28.4236 22.3701 28.6917 22.6315C29.0537 22.985 29.4056 22.9817 29.7742 22.6214C30.0423 22.36 30.3004 22.0869 30.5718 21.8271C30.9539 21.4602 31.3192 21.4568 31.6962 21.8221C32.0799 22.1941 32.4536 22.5795 32.8356 22.9549C32.9881 23.1057 33.0786 23.2716 33.0451 23.4877V23.4894Z" fill="#DD1F26"/>
</g>
<defs>
<clipPath id="clip0_297_3284">
<rect width="163.141" height="50" fill="white"/>
</clipPath>
</defs>
</svg>
