<svg width="18" height="20" viewBox="0 0 18 20" fill="none" xmlns="http://www.w3.org/2000/svg">
<path d="M13.3399 7.2013C14.6532 8.12164 16.2621 8.66316 17.9997 8.66316V5.38523C17.6709 5.38536 17.3429 5.3517 17.0211 5.28482V7.86502C15.2836 7.86502 13.675 7.32358 12.3614 6.4033V13.0927C12.3614 16.4391 9.59416 19.1516 6.18091 19.1516C4.90734 19.1516 3.72355 18.7742 2.74023 18.1268C3.86256 19.2519 5.42772 19.9497 7.15923 19.9497C10.5728 19.9497 13.3401 17.2372 13.3401 13.8906V7.2013H13.3399ZM14.5472 3.89427C13.876 3.17544 13.4353 2.24647 13.3399 1.21944V0.797852H12.4126C12.646 2.10316 13.4423 3.21833 14.5472 3.89427ZM4.89911 15.559C4.52409 15.077 4.32138 14.4873 4.32234 13.881C4.32234 12.3505 5.58803 11.1096 7.1496 11.1096C7.44057 11.1094 7.72983 11.1532 8.0072 11.2394V7.8882C7.68306 7.84468 7.35597 7.82613 7.02902 7.83296V10.4414C6.7515 10.3551 6.4621 10.3114 6.17099 10.3116C4.60949 10.3116 3.34387 11.5524 3.34387 13.0831C3.34387 14.1654 3.97647 15.1025 4.89911 15.559Z" fill="#DD1F26"/>
<path d="M12.3611 6.40323C13.6748 7.32351 15.2833 7.86495 17.0209 7.86495V5.28475C16.051 5.0822 15.1924 4.58537 14.5469 3.89427C13.4419 3.21827 12.6458 2.10309 12.4123 0.797852H9.97648V13.8905C9.97092 15.4168 8.70741 16.6527 7.14921 16.6527C6.23107 16.6527 5.4153 16.2236 4.89872 15.5589C3.97622 15.1025 3.34355 14.1654 3.34355 13.0832C3.34355 11.5526 4.60917 10.3116 6.17067 10.3116C6.46985 10.3116 6.7582 10.3573 7.0287 10.4414V7.83302C3.67535 7.90096 0.978516 10.587 0.978516 13.8905C0.978516 15.5396 1.65007 17.0346 2.74005 18.127C3.72338 18.7742 4.90709 19.1518 6.18073 19.1518C9.59405 19.1518 12.3612 16.439 12.3612 13.0927L12.3611 6.40323Z" fill="#1B1B1B"/>
<path d="M17.0209 5.28483V4.58731C16.1463 4.58855 15.289 4.34844 14.5469 3.89441C15.2037 4.59939 16.0687 5.08554 17.0209 5.28497M12.4123 0.797931C12.39 0.673212 12.373 0.547661 12.3611 0.421586V0H8.99775V13.0928C8.99241 14.619 7.72889 15.8548 6.17063 15.8548C5.72887 15.8555 5.29315 15.7542 4.89867 15.5592C5.41526 16.2238 6.23102 16.6528 7.14916 16.6528C8.70729 16.6528 9.97094 15.417 9.97643 13.8907V0.798L12.4123 0.797931ZM7.02886 7.8331V7.09041C6.74781 7.05278 6.46448 7.03393 6.18082 7.034C2.76715 7.034 0 9.74669 0 13.0928C0 15.1906 1.08752 17.0394 2.74015 18.127C1.65016 17.0347 0.978609 15.5397 0.978609 13.8906C0.978609 10.5872 3.67538 7.90103 7.02886 7.8331Z" fill="#00F2EA"/>
</svg>
