<svg width="28" height="20" viewBox="0 0 28 20" fill="none" xmlns="http://www.w3.org/2000/svg">
<path d="M27.3816 3.11944C27.221 2.51651 26.9077 1.96683 26.473 1.52514C26.0382 1.08346 25.4971 0.765179 24.9036 0.602C22.7308 0 13.9858 0 13.9858 0C13.9858 0 5.2404 0.0182222 3.06755 0.620222C2.47403 0.783411 1.93294 1.10171 1.49818 1.54341C1.06341 1.98512 0.750139 2.53482 0.589552 3.13778C-0.0676821 7.05978 -0.322635 13.036 0.607599 16.8011C0.768202 17.404 1.08148 17.9537 1.51625 18.3954C1.95101 18.8371 2.49209 19.1554 3.0856 19.3186C5.25844 19.9206 14.0036 19.9206 14.0036 19.9206C14.0036 19.9206 22.7487 19.9206 24.9214 19.3186C25.515 19.1554 26.0561 18.8371 26.4909 18.3954C26.9256 17.9538 27.2389 17.4041 27.3996 16.8011C28.0928 12.8736 28.3064 6.901 27.3816 3.11944Z" fill="#DD1F26"/>
<path d="M11.2021 14.2287L18.4568 9.96007L11.2021 5.69141V14.2287Z" fill="white"/>
</svg>
